<mxfile host="app.diagrams.net" modified="2023-04-12T08:16:49.094Z" agent="Mozilla/5.0 (Windows NT 10.0; WOW64) AppleWebKit/537.36 (KHTML, like Gecko) Chrome/102.0.0.0 Safari/537.36" etag="owyJaA4njCxxyqyvf5bo" version="21.1.4" type="github">
  <diagram id="drd781UBc9HcNanvUk7X" name="第 1 页">
    <mxGraphModel dx="433" dy="230" grid="1" gridSize="10" guides="1" tooltips="1" connect="1" arrows="1" fold="1" page="1" pageScale="1" pageWidth="827" pageHeight="1169" math="0" shadow="0">
      <root>
        <mxCell id="0" />
        <mxCell id="1" parent="0" />
        <mxCell id="4RYLCRY8slWU71JGyVVp-26" value="" style="group;rotation=40;" parent="1" vertex="1" connectable="0">
          <mxGeometry x="526" y="410" width="20" height="30" as="geometry" />
        </mxCell>
        <mxCell id="4RYLCRY8slWU71JGyVVp-27" value="" style="ellipse;whiteSpace=wrap;html=1;aspect=fixed;fillColor=#FF66B3;rotation=40;" parent="4RYLCRY8slWU71JGyVVp-26" vertex="1">
          <mxGeometry x="15" y="6" width="10" height="10" as="geometry" />
        </mxCell>
        <mxCell id="4RYLCRY8slWU71JGyVVp-28" value="" style="ellipse;whiteSpace=wrap;html=1;aspect=fixed;fillColor=#FF66B3;rotation=40;" parent="4RYLCRY8slWU71JGyVVp-26" vertex="1">
          <mxGeometry x="-5" y="14" width="10" height="10" as="geometry" />
        </mxCell>
        <mxCell id="4RYLCRY8slWU71JGyVVp-29" value="" style="endArrow=none;html=1;rounded=0;startArrow=none;exitX=0.796;exitY=0.053;exitDx=0;exitDy=0;exitPerimeter=0;" parent="4RYLCRY8slWU71JGyVVp-26" source="4RYLCRY8slWU71JGyVVp-28" target="4RYLCRY8slWU71JGyVVp-27" edge="1">
          <mxGeometry width="50" height="50" relative="1" as="geometry">
            <mxPoint x="-33" y="51" as="sourcePoint" />
            <mxPoint x="37" y="44" as="targetPoint" />
            <Array as="points">
              <mxPoint x="14" y="20" />
            </Array>
          </mxGeometry>
        </mxCell>
        <mxCell id="4RYLCRY8slWU71JGyVVp-30" value="" style="group;rotation=30;" parent="1" vertex="1" connectable="0">
          <mxGeometry x="523" y="386" width="20" height="30" as="geometry" />
        </mxCell>
        <mxCell id="4RYLCRY8slWU71JGyVVp-31" value="" style="ellipse;whiteSpace=wrap;html=1;aspect=fixed;fillColor=#FF66B3;rotation=30;" parent="4RYLCRY8slWU71JGyVVp-30" vertex="1">
          <mxGeometry x="14" y="4" width="10" height="10" as="geometry" />
        </mxCell>
        <mxCell id="4RYLCRY8slWU71JGyVVp-32" value="" style="ellipse;whiteSpace=wrap;html=1;aspect=fixed;fillColor=#FF66B3;rotation=30;" parent="4RYLCRY8slWU71JGyVVp-30" vertex="1">
          <mxGeometry x="-4" y="16" width="10" height="10" as="geometry" />
        </mxCell>
        <mxCell id="4RYLCRY8slWU71JGyVVp-33" value="" style="endArrow=none;html=1;rounded=0;startArrow=none;" parent="4RYLCRY8slWU71JGyVVp-30" source="4RYLCRY8slWU71JGyVVp-32" target="4RYLCRY8slWU71JGyVVp-31" edge="1">
          <mxGeometry width="50" height="50" relative="1" as="geometry">
            <mxPoint x="-26" y="58" as="sourcePoint" />
            <mxPoint x="42" y="39" as="targetPoint" />
            <Array as="points">
              <mxPoint x="10" y="20" />
              <mxPoint x="10" y="14" />
              <mxPoint x="10" y="10" />
              <mxPoint x="10" y="10" />
            </Array>
          </mxGeometry>
        </mxCell>
        <mxCell id="4RYLCRY8slWU71JGyVVp-34" value="" style="ellipse;whiteSpace=wrap;html=1;aspect=fixed;fillColor=#FF66B3;rotation=40;" parent="1" vertex="1">
          <mxGeometry x="557" y="436" width="10" height="10" as="geometry" />
        </mxCell>
        <mxCell id="4RYLCRY8slWU71JGyVVp-35" value="" style="ellipse;whiteSpace=wrap;html=1;aspect=fixed;fillColor=#FF66B3;rotation=40;" parent="1" vertex="1">
          <mxGeometry x="537" y="444" width="10" height="10" as="geometry" />
        </mxCell>
        <mxCell id="4RYLCRY8slWU71JGyVVp-36" value="" style="endArrow=none;html=1;rounded=0;startArrow=none;exitX=0.797;exitY=0.05;exitDx=0;exitDy=0;exitPerimeter=0;" parent="1" source="4RYLCRY8slWU71JGyVVp-35" target="4RYLCRY8slWU71JGyVVp-34" edge="1">
          <mxGeometry width="50" height="50" relative="1" as="geometry">
            <mxPoint x="-7" y="51" as="sourcePoint" />
            <mxPoint x="63" y="44" as="targetPoint" />
            <Array as="points">
              <mxPoint x="550" y="441" />
            </Array>
          </mxGeometry>
        </mxCell>
        <mxCell id="4RYLCRY8slWU71JGyVVp-37" value="" style="group;rotation=60;" parent="1" vertex="1" connectable="0">
          <mxGeometry x="560" y="435" width="20" height="40" as="geometry" />
        </mxCell>
        <mxCell id="4RYLCRY8slWU71JGyVVp-38" value="" style="ellipse;whiteSpace=wrap;html=1;aspect=fixed;fillColor=#FF66B3;rotation=60;" parent="4RYLCRY8slWU71JGyVVp-37" vertex="1">
          <mxGeometry x="12" y="10" width="10" height="10" as="geometry" />
        </mxCell>
        <mxCell id="4RYLCRY8slWU71JGyVVp-39" value="" style="ellipse;whiteSpace=wrap;html=1;aspect=fixed;fillColor=#FF66B3;rotation=60;" parent="4RYLCRY8slWU71JGyVVp-37" vertex="1">
          <mxGeometry x="-10" y="10" width="10" height="10" as="geometry" />
        </mxCell>
        <mxCell id="4RYLCRY8slWU71JGyVVp-40" value="" style="endArrow=none;html=1;rounded=0;startArrow=none;exitX=1;exitY=0;exitDx=0;exitDy=0;" parent="4RYLCRY8slWU71JGyVVp-37" edge="1">
          <mxGeometry width="50" height="50" relative="1" as="geometry">
            <mxPoint x="-0.17037086856532824" y="16.294095225509636" as="sourcePoint" />
            <mxPoint x="12.000000078281118" y="14.999115323994886" as="targetPoint" />
            <Array as="points">
              <mxPoint y="20" />
              <mxPoint x="10" y="15" />
            </Array>
          </mxGeometry>
        </mxCell>
        <mxCell id="4RYLCRY8slWU71JGyVVp-45" value="" style="group;rotation=120;" parent="1" vertex="1" connectable="0">
          <mxGeometry x="537" y="424" width="20" height="30" as="geometry" />
        </mxCell>
        <mxCell id="4RYLCRY8slWU71JGyVVp-46" value="" style="ellipse;whiteSpace=wrap;html=1;aspect=fixed;fillColor=#FF66B3;rotation=30;" parent="4RYLCRY8slWU71JGyVVp-45" vertex="1">
          <mxGeometry x="15" y="4" width="10" height="10" as="geometry" />
        </mxCell>
        <mxCell id="4RYLCRY8slWU71JGyVVp-47" value="" style="ellipse;whiteSpace=wrap;html=1;aspect=fixed;fillColor=#FF66B3;rotation=30;" parent="4RYLCRY8slWU71JGyVVp-45" vertex="1">
          <mxGeometry x="-5" y="16" width="10" height="10" as="geometry" />
        </mxCell>
        <mxCell id="4RYLCRY8slWU71JGyVVp-48" value="" style="endArrow=none;html=1;rounded=0;startArrow=none;" parent="4RYLCRY8slWU71JGyVVp-45" source="4RYLCRY8slWU71JGyVVp-47" target="4RYLCRY8slWU71JGyVVp-46" edge="1">
          <mxGeometry width="50" height="50" relative="1" as="geometry">
            <mxPoint x="-26" y="58" as="sourcePoint" />
            <mxPoint x="41" y="39" as="targetPoint" />
            <Array as="points">
              <mxPoint x="13" y="16" />
            </Array>
          </mxGeometry>
        </mxCell>
        <mxCell id="4RYLCRY8slWU71JGyVVp-49" value="" style="group;rotation=90;" parent="1" vertex="1" connectable="0">
          <mxGeometry x="492" y="328" width="228" height="152" as="geometry" />
        </mxCell>
        <mxCell id="4RYLCRY8slWU71JGyVVp-50" value="" style="ellipse;whiteSpace=wrap;html=1;aspect=fixed;fillColor=#FF66B3;rotation=0;" parent="4RYLCRY8slWU71JGyVVp-49" vertex="1">
          <mxGeometry x="11" width="10" height="10" as="geometry" />
        </mxCell>
        <mxCell id="4RYLCRY8slWU71JGyVVp-51" value="" style="ellipse;whiteSpace=wrap;html=1;aspect=fixed;fillColor=#FF66B3;rotation=0;" parent="4RYLCRY8slWU71JGyVVp-49" vertex="1">
          <mxGeometry x="-1" y="20" width="10" height="10" as="geometry" />
        </mxCell>
        <mxCell id="4RYLCRY8slWU71JGyVVp-52" value="" style="endArrow=none;html=1;rounded=0;startArrow=none;" parent="4RYLCRY8slWU71JGyVVp-49" source="4RYLCRY8slWU71JGyVVp-51" target="4RYLCRY8slWU71JGyVVp-50" edge="1">
          <mxGeometry width="50" height="50" relative="1" as="geometry">
            <mxPoint y="70" as="sourcePoint" />
            <mxPoint x="49" y="20" as="targetPoint" />
            <Array as="points">
              <mxPoint x="8" y="12" />
            </Array>
          </mxGeometry>
        </mxCell>
        <mxCell id="4RYLCRY8slWU71JGyVVp-1" value="" style="swimlane;startSize=0;strokeWidth=2;" parent="4RYLCRY8slWU71JGyVVp-49" vertex="1">
          <mxGeometry x="-51" y="-48" width="280" height="200" as="geometry">
            <mxRectangle x="120" y="280" width="50" height="40" as="alternateBounds" />
          </mxGeometry>
        </mxCell>
        <mxCell id="4RYLCRY8slWU71JGyVVp-2" value="" style="group;rotation=40;" parent="4RYLCRY8slWU71JGyVVp-1" vertex="1" connectable="0">
          <mxGeometry x="76" y="120" width="20" height="30" as="geometry" />
        </mxCell>
        <mxCell id="4RYLCRY8slWU71JGyVVp-3" value="" style="ellipse;whiteSpace=wrap;html=1;aspect=fixed;fillColor=#FF66B3;rotation=40;" parent="4RYLCRY8slWU71JGyVVp-2" vertex="1">
          <mxGeometry x="15" y="6" width="10" height="10" as="geometry" />
        </mxCell>
        <mxCell id="4RYLCRY8slWU71JGyVVp-4" value="" style="ellipse;whiteSpace=wrap;html=1;aspect=fixed;fillColor=#FF66B3;rotation=40;" parent="4RYLCRY8slWU71JGyVVp-2" vertex="1">
          <mxGeometry x="-10" y="13" width="10" height="10" as="geometry" />
        </mxCell>
        <mxCell id="4RYLCRY8slWU71JGyVVp-5" value="" style="endArrow=none;html=1;rounded=0;startArrow=none;exitX=0.849;exitY=0.091;exitDx=0;exitDy=0;exitPerimeter=0;" parent="4RYLCRY8slWU71JGyVVp-2" source="4RYLCRY8slWU71JGyVVp-4" target="4RYLCRY8slWU71JGyVVp-3" edge="1">
          <mxGeometry width="50" height="50" relative="1" as="geometry">
            <mxPoint x="-33" y="51" as="sourcePoint" />
            <mxPoint x="37" y="44" as="targetPoint" />
            <Array as="points">
              <mxPoint x="4" y="20" />
              <mxPoint x="14" y="10" />
            </Array>
          </mxGeometry>
        </mxCell>
        <mxCell id="4RYLCRY8slWU71JGyVVp-6" value="" style="group;rotation=40;" parent="4RYLCRY8slWU71JGyVVp-2" vertex="1" connectable="0">
          <mxGeometry x="-10" y="-24" width="20" height="30" as="geometry" />
        </mxCell>
        <mxCell id="4RYLCRY8slWU71JGyVVp-7" value="" style="ellipse;whiteSpace=wrap;html=1;aspect=fixed;fillColor=#FF66B3;rotation=40;" parent="4RYLCRY8slWU71JGyVVp-6" vertex="1">
          <mxGeometry x="15" y="6" width="10" height="10" as="geometry" />
        </mxCell>
        <mxCell id="4RYLCRY8slWU71JGyVVp-8" value="" style="ellipse;whiteSpace=wrap;html=1;aspect=fixed;fillColor=#FF66B3;rotation=40;" parent="4RYLCRY8slWU71JGyVVp-6" vertex="1">
          <mxGeometry x="-5" y="14" width="10" height="10" as="geometry" />
        </mxCell>
        <mxCell id="4RYLCRY8slWU71JGyVVp-9" value="" style="endArrow=none;html=1;rounded=0;startArrow=none;" parent="4RYLCRY8slWU71JGyVVp-6" source="4RYLCRY8slWU71JGyVVp-8" target="4RYLCRY8slWU71JGyVVp-7" edge="1">
          <mxGeometry width="50" height="50" relative="1" as="geometry">
            <mxPoint x="-33" y="51" as="sourcePoint" />
            <mxPoint x="37" y="44" as="targetPoint" />
            <Array as="points">
              <mxPoint x="4" y="14" />
              <mxPoint x="14" y="14" />
            </Array>
          </mxGeometry>
        </mxCell>
        <mxCell id="4RYLCRY8slWU71JGyVVp-10" value="" style="group;rotation=20;" parent="4RYLCRY8slWU71JGyVVp-1" vertex="1" connectable="0">
          <mxGeometry x="68" y="80" width="20" height="30" as="geometry" />
        </mxCell>
        <mxCell id="4RYLCRY8slWU71JGyVVp-11" value="" style="ellipse;whiteSpace=wrap;html=1;aspect=fixed;fillColor=#FF66B3;rotation=20;" parent="4RYLCRY8slWU71JGyVVp-10" vertex="1">
          <mxGeometry x="13" y="3" width="10" height="10" as="geometry" />
        </mxCell>
        <mxCell id="4RYLCRY8slWU71JGyVVp-12" value="" style="ellipse;whiteSpace=wrap;html=1;aspect=fixed;fillColor=#FF66B3;rotation=20;" parent="4RYLCRY8slWU71JGyVVp-10" vertex="1">
          <mxGeometry x="-3" y="17" width="10" height="10" as="geometry" />
        </mxCell>
        <mxCell id="4RYLCRY8slWU71JGyVVp-13" value="" style="endArrow=none;html=1;rounded=0;startArrow=none;exitX=0.727;exitY=0.037;exitDx=0;exitDy=0;entryX=0;entryY=1;entryDx=0;entryDy=0;exitPerimeter=0;" parent="4RYLCRY8slWU71JGyVVp-10" source="4RYLCRY8slWU71JGyVVp-12" target="4RYLCRY8slWU71JGyVVp-11" edge="1">
          <mxGeometry width="50" height="50" relative="1" as="geometry">
            <mxPoint x="-18" y="64" as="sourcePoint" />
            <mxPoint x="45" y="33" as="targetPoint" />
            <Array as="points">
              <mxPoint x="12" y="20" />
              <mxPoint x="12" y="10" />
            </Array>
          </mxGeometry>
        </mxCell>
        <mxCell id="4RYLCRY8slWU71JGyVVp-14" value="" style="group;rotation=15;" parent="4RYLCRY8slWU71JGyVVp-10" vertex="1" connectable="0">
          <mxGeometry x="-7" y="-17" width="20" height="30" as="geometry" />
        </mxCell>
        <mxCell id="4RYLCRY8slWU71JGyVVp-15" value="" style="ellipse;whiteSpace=wrap;html=1;aspect=fixed;fillColor=#FF66B3;rotation=15;" parent="4RYLCRY8slWU71JGyVVp-14" vertex="1">
          <mxGeometry x="12" y="2" width="10" height="10" as="geometry" />
        </mxCell>
        <mxCell id="4RYLCRY8slWU71JGyVVp-16" value="" style="ellipse;whiteSpace=wrap;html=1;aspect=fixed;fillColor=#FF66B3;rotation=15;" parent="4RYLCRY8slWU71JGyVVp-14" vertex="1">
          <mxGeometry x="-2" y="18" width="10" height="10" as="geometry" />
        </mxCell>
        <mxCell id="tt2mpNIdjECBzagLT24Q-6" value="" style="endArrow=none;html=1;rounded=0;startArrow=none;exitX=0.686;exitY=0.02;exitDx=0;exitDy=0;entryX=0;entryY=1;entryDx=0;entryDy=0;exitPerimeter=0;" edge="1" parent="4RYLCRY8slWU71JGyVVp-14" source="4RYLCRY8slWU71JGyVVp-16">
          <mxGeometry width="50" height="50" relative="1" as="geometry">
            <mxPoint x="6.5" y="18" as="sourcePoint" />
            <mxPoint x="13.5" y="10" as="targetPoint" />
            <Array as="points">
              <mxPoint x="9" y="17" />
              <mxPoint x="9" y="7" />
            </Array>
          </mxGeometry>
        </mxCell>
        <mxCell id="4RYLCRY8slWU71JGyVVp-18" value="" style="group;rotation=90;" parent="4RYLCRY8slWU71JGyVVp-1" vertex="1" connectable="0">
          <mxGeometry x="41" y="40" width="20" height="30" as="geometry" />
        </mxCell>
        <mxCell id="4RYLCRY8slWU71JGyVVp-19" value="" style="ellipse;whiteSpace=wrap;html=1;aspect=fixed;fillColor=#FF66B3;rotation=0;" parent="4RYLCRY8slWU71JGyVVp-18" vertex="1">
          <mxGeometry x="11" width="10" height="10" as="geometry" />
        </mxCell>
        <mxCell id="4RYLCRY8slWU71JGyVVp-20" value="" style="ellipse;whiteSpace=wrap;html=1;aspect=fixed;fillColor=#FF66B3;rotation=0;" parent="4RYLCRY8slWU71JGyVVp-18" vertex="1">
          <mxGeometry x="-1" y="20" width="10" height="10" as="geometry" />
        </mxCell>
        <mxCell id="4RYLCRY8slWU71JGyVVp-21" value="" style="endArrow=none;html=1;rounded=0;startArrow=none;" parent="4RYLCRY8slWU71JGyVVp-18" source="4RYLCRY8slWU71JGyVVp-20" target="4RYLCRY8slWU71JGyVVp-19" edge="1">
          <mxGeometry width="50" height="50" relative="1" as="geometry">
            <mxPoint y="70" as="sourcePoint" />
            <mxPoint x="49" y="20" as="targetPoint" />
            <Array as="points">
              <mxPoint x="9" y="20" />
              <mxPoint x="9" y="10" />
            </Array>
          </mxGeometry>
        </mxCell>
        <mxCell id="4RYLCRY8slWU71JGyVVp-22" value="" style="group;rotation=90;" parent="4RYLCRY8slWU71JGyVVp-1" vertex="1" connectable="0">
          <mxGeometry x="10" y="20" width="20" height="30" as="geometry" />
        </mxCell>
        <mxCell id="4RYLCRY8slWU71JGyVVp-23" value="" style="ellipse;whiteSpace=wrap;html=1;aspect=fixed;fillColor=#FF66B3;rotation=0;" parent="4RYLCRY8slWU71JGyVVp-22" vertex="1">
          <mxGeometry x="36" width="10" height="10" as="geometry" />
        </mxCell>
        <mxCell id="4RYLCRY8slWU71JGyVVp-24" value="" style="ellipse;whiteSpace=wrap;html=1;aspect=fixed;fillColor=#FF66B3;rotation=0;" parent="4RYLCRY8slWU71JGyVVp-22" vertex="1">
          <mxGeometry x="25" y="20" width="10" height="10" as="geometry" />
        </mxCell>
        <mxCell id="tt2mpNIdjECBzagLT24Q-15" value="" style="endArrow=none;html=1;rounded=0;entryX=0.26;entryY=0.892;entryDx=0;entryDy=0;exitX=0.711;exitY=0.061;exitDx=0;exitDy=0;exitPerimeter=0;entryPerimeter=0;" edge="1" parent="4RYLCRY8slWU71JGyVVp-22" source="4RYLCRY8slWU71JGyVVp-24" target="4RYLCRY8slWU71JGyVVp-23">
          <mxGeometry width="50" height="50" relative="1" as="geometry">
            <mxPoint x="18" y="50" as="sourcePoint" />
            <mxPoint x="68" as="targetPoint" />
            <Array as="points">
              <mxPoint x="38" y="20" />
            </Array>
          </mxGeometry>
        </mxCell>
        <mxCell id="4RYLCRY8slWU71JGyVVp-41" value="" style="group;rotation=135;" parent="4RYLCRY8slWU71JGyVVp-1" vertex="1" connectable="0">
          <mxGeometry x="109" y="165" width="20" height="30" as="geometry" />
        </mxCell>
        <mxCell id="4RYLCRY8slWU71JGyVVp-42" value="" style="ellipse;whiteSpace=wrap;html=1;aspect=fixed;fillColor=#FF66B3;rotation=45;" parent="4RYLCRY8slWU71JGyVVp-41" vertex="1">
          <mxGeometry x="16" y="7" width="10" height="10" as="geometry" />
        </mxCell>
        <mxCell id="4RYLCRY8slWU71JGyVVp-43" value="" style="ellipse;whiteSpace=wrap;html=1;aspect=fixed;fillColor=#FF66B3;rotation=45;" parent="4RYLCRY8slWU71JGyVVp-41" vertex="1">
          <mxGeometry x="-6" y="13" width="10" height="10" as="geometry" />
        </mxCell>
        <mxCell id="4RYLCRY8slWU71JGyVVp-44" value="" style="endArrow=none;html=1;rounded=0;startArrow=none;" parent="4RYLCRY8slWU71JGyVVp-41" source="4RYLCRY8slWU71JGyVVp-43" target="4RYLCRY8slWU71JGyVVp-42" edge="1">
          <mxGeometry width="50" height="50" relative="1" as="geometry">
            <mxPoint x="-36" y="47" as="sourcePoint" />
            <mxPoint x="34" y="46" as="targetPoint" />
            <Array as="points">
              <mxPoint x="11" y="18" />
              <mxPoint x="11" y="15" />
            </Array>
          </mxGeometry>
        </mxCell>
        <mxCell id="4RYLCRY8slWU71JGyVVp-53" value="x" style="text;html=1;align=center;verticalAlign=middle;resizable=0;points=[];autosize=1;strokeColor=none;fillColor=none;" parent="1" vertex="1">
          <mxGeometry x="565" y="480" width="30" height="30" as="geometry" />
        </mxCell>
        <mxCell id="4RYLCRY8slWU71JGyVVp-54" value="y" style="text;html=1;align=center;verticalAlign=middle;resizable=0;points=[];autosize=1;strokeColor=none;fillColor=none;" parent="1" vertex="1">
          <mxGeometry x="410" y="365" width="30" height="30" as="geometry" />
        </mxCell>
        <mxCell id="4RYLCRY8slWU71JGyVVp-55" value="0" style="text;html=1;align=center;verticalAlign=middle;resizable=0;points=[];autosize=1;strokeColor=none;fillColor=none;" parent="1" vertex="1">
          <mxGeometry x="420" y="470" width="30" height="30" as="geometry" />
        </mxCell>
      </root>
    </mxGraphModel>
  </diagram>
</mxfile>
